<svg width="24" height="25" fill="none" xmlns="http://www.w3.org/2000/svg"><path fill-rule="evenodd" clip-rule="evenodd" d="M18.926 9.764l-3.474 5.51a1.777 1.777 0 01-2.566.474l-2.762-2.072a.708.708 0 00-.854.002l-3.73 2.831c-.498.378-1.152-.22-.816-.748l3.476-5.51a1.773 1.773 0 012.564-.473l2.764 2.072c.254.19.602.188.854-.002l3.73-2.833c.498-.378 1.15.22.814.748zm-7.1-8.826C5.162.938 0 5.817 0 12.409c0 3.448 1.412 6.426 3.716 8.484.19.174.308.415.318.674l.064 2.105a.947.947 0 001.326.837l2.348-1.035a.943.943 0 01.628-.049 12.86 12.86 0 003.426.454c6.662 0 11.824-4.88 11.824-11.47C23.65 5.817 18.488.938 11.826.938z" fill="#fff"/></svg>