<svg width="25" height="25" fill="none" xmlns="http://www.w3.org/2000/svg"><path fill-rule="evenodd" clip-rule="evenodd" d="M12.797 22.34c5.34-.152 9.558-4.622 9.404-9.96-.15-5.247-4.464-9.41-9.678-9.41-.094 0-.186.001-.28.003-5.34.157-9.56 4.623-9.404 9.963a9.657 9.657 0 001.328 4.625l.176.305-.766 4.207 4.164-.982.316.165a9.706 9.706 0 004.74 1.084zM20.631 4.2a11.653 11.653 0 013.602 8.027 11.755 11.755 0 01-2.918 8.177 11.653 11.653 0 01-8.796 3.974c-1.758 0-3.5-.398-5.08-1.159l-6.132 1.366c-.008.002-.012.002-.018.002a.09.09 0 01-.09-.102l1.038-6.201a11.72 11.72 0 01-1.432-5.29 11.637 11.637 0 013.194-8.382 11.646 11.646 0 018.53-3.675h.06A11.722 11.722 0 0120.631 4.2zm-2.869 10.993c.29.156.482.236.552.36.072.126.052.714-.214 1.394-.266.68-1.486 1.306-2.028 1.338-.158.01-.314.032-.518.032-.49 0-1.252-.128-2.99-.876-2.95-1.272-4.746-4.396-4.886-4.598-.14-.2-1.15-1.632-1.108-3.08.046-1.448.826-2.136 1.106-2.424.268-.272.572-.344.772-.344h.022c.198.006.394.012.566.024.208.016.438.034.646.53.242.59.77 2.062.838 2.212.07.148.114.322.01.516-.106.194-.156.314-.31.482-.152.168-.322.376-.456.502-.152.142-.31.298-.148.596.162.3.722 1.284 1.574 2.09 1.092 1.038 1.968 1.378 2.316 1.54.126.06.23.086.322.086a.43.43 0 00.32-.148c.184-.186.736-.828.968-1.124.12-.154.23-.21.35-.21.094 0 .196.036.316.082.266.106 1.688.864 1.98 1.02z" fill="#fff"/></svg>